<?xml version="1.0" encoding="UTF-8"?>
<svg id="Livello_1" data-name="Livello 1" xmlns="http://www.w3.org/2000/svg" viewBox="0 0 60 60">
  <defs>
    <style>
      .cls-1 {
        fill: #1d1d1b;
      }
    </style>
  </defs>
  <path class="cls-1" d="M43.02,37.74c2.92-3.95,4.51-8.78,4.51-13.75C47.53,11.21,37.13.81,24.35.81S1.18,11.21,1.18,23.99s10.4,23.17,23.17,23.17c4.59,0,8.98-1.32,12.77-3.84l16.71,16.46,5.62-5.49-16.43-16.55ZM24.35,6.84c9.46,0,17.15,7.69,17.15,17.15,0,5.39-2.46,10.37-6.75,13.64-3.01,2.3-6.6,3.51-10.4,3.51-9.46,0-17.15-7.7-17.15-17.15S14.9,6.84,24.35,6.84Z"/>
</svg>